<svg version="1.2" xmlns="http://www.w3.org/2000/svg" viewBox="0 0 2000 2000" width="2000" height="2000">
	<style>
		.s0 { fill: #ffffff } 
		.s1 { fill: #000000 } 
	</style>
	<g id="Layer 2">
		<path id="Path 0" class="s0" d="m0 1000v1000h2000v-2000h-2000z"/>
		<path id="Path 1" class="s1" d="m981 10.25c-0.27 0.28-10.85 1.03-23.5 1.66-12.65 0.64-31.77 1.84-42.5 2.67-10.73 0.84-26.02 2.16-34 2.93-7.98 0.78-20.13 2.09-27 2.92-6.88 0.82-21.5 2.89-32.5 4.59-15.36 2.38-29.62 5.61-61.5 13.96-22.83 5.97-43.52 11.63-46 12.56-2.48 0.94-11.92 4.29-21 7.44-9.08 3.15-21.9 7.65-28.5 9.99-6.6 2.33-14.48 5.28-17.5 6.55-3.02 1.26-9.33 3.63-14 5.26-4.67 1.62-12.55 4.62-17.5 6.66-4.95 2.04-19.35 8.63-32 14.63-12.65 6.01-25.92 12.44-29.5 14.3-3.58 1.86-13.02 6.85-21 11.1-7.98 4.25-20.8 11.45-28.5 16.01-7.7 4.56-22.98 13.63-33.96 20.15-10.97 6.53-23.17 14.12-27.11 16.87-3.93 2.75-9.33 6.57-11.99 8.5-2.66 1.93-15.66 11.56-28.89 21.41-13.23 9.84-28.78 21.75-34.55 26.45-5.77 4.7-15.87 13.29-22.44 19.09-6.56 5.8-18 16.17-25.41 23.05-7.41 6.87-17.6 16.55-22.65 21.5-5.04 4.95-12.01 12.37-15.48 16.5-3.48 4.12-7.55 8.62-9.06 10-1.51 1.37-5.38 5.46-8.6 9.07-3.22 3.61-9.46 10.52-13.86 15.36-4.4 4.84-11.02 12.46-14.71 16.93-3.68 4.48-15.2 19.39-25.58 33.14-10.39 13.75-20.29 27.02-22.01 29.5-1.72 2.48-6.9 10.12-11.51 17-4.62 6.87-12.69 19.7-17.93 28.5-5.25 8.8-11.68 19.6-14.3 24-2.61 4.4-7.23 12.27-10.25 17.5-3.03 5.23-9.43 17.37-14.21 27-4.79 9.62-11.28 23.12-14.42 30-3.15 6.87-7.9 17-10.57 22.5-2.67 5.5-7.84 18.1-11.49 28-3.65 9.9-8.59 22.95-10.99 29-2.4 6.05-8.48 23.15-13.51 38-6.41 18.95-11.53 36.69-17.15 59.5-4.4 17.87-9.29 38.58-10.86 46-1.57 7.42-4.67 25.2-6.89 39.5-2.22 14.3-4.72 31.4-5.56 38-0.85 6.6-2.21 20.55-3.03 31-0.82 10.45-2.4 34.98-3.5 54.5-1.68 29.95-1.84 39.02-1 58 0.55 12.37 1.67 34.65 2.5 49.5 0.83 14.85 2.19 32.85 3.03 40 0.83 7.15 2.88 22.45 4.55 34 1.67 11.55 4.13 27.08 5.48 34.5 1.35 7.42 2.7 14.17 2.99 15 0.3 0.83 1.67 6.9 3.05 13.5 1.39 6.6 5.83 25.5 9.88 42 5.08 20.66 10.22 38.4 16.54 57 5.04 14.85 11.11 31.95 13.49 38 2.38 6.05 6.88 17.97 9.99 26.5 3.12 8.53 10.23 25.17 15.81 37 5.58 11.83 15.51 32.08 22.06 45 6.55 12.92 13.59 26.42 15.64 30 2.04 3.58 6.54 11.22 9.99 17 3.45 5.78 8.16 13.65 10.46 17.5 2.3 3.85 8.16 13.53 13.01 21.5 4.85 7.97 10.66 16.93 12.91 19.9 2.25 2.97 7.91 10.7 12.59 17.19 4.68 6.48 13.9 18.89 20.49 27.59 6.59 8.7 17.14 21.9 23.44 29.32 6.29 7.42 17.32 19.93 24.51 27.79 7.18 7.87 15.99 17.77 19.56 22 3.57 4.24 11.24 12.43 17.04 18.21 5.79 5.78 16.54 15.9 23.89 22.5 7.34 6.6 17.9 15.96 23.46 20.8 5.56 4.84 13.93 12.07 18.61 16.07 4.68 3.99 14.64 11.96 22.14 17.7 7.5 5.73 18.52 14.13 24.5 18.65 5.97 4.52 16.48 12.2 23.36 17.05 6.87 4.86 15.2 10.67 18.5 12.93 3.3 2.25 12.52 8.13 20.5 13.05 7.98 4.93 16.52 9.99 19 11.25 2.48 1.27 11.25 6.33 19.5 11.26 8.25 4.93 24.9 13.81 37 19.73 12.1 5.93 26.5 12.69 32 15.02 5.5 2.33 15.17 6.69 21.5 9.69 6.33 3 21.85 9.2 34.5 13.79 12.65 4.59 27.95 10.19 34 12.44 6.05 2.26 17.75 6.29 26 8.97 8.25 2.68 22.2 6.93 31 9.45 8.8 2.51 20.73 5.68 26.5 7.03 5.77 1.36 17.25 4.07 25.5 6.04 8.25 1.97 21.75 4.68 30 6.03 8.25 1.35 19.95 3.35 26 4.44 6.05 1.08 25.62 4.23 43.5 6.99 20.98 3.25 41.54 5.73 58 7.03 14.02 1.1 33.15 2.5 42.5 3.11 12.49 0.82 21.91 0.82 35.5 0 10.17-0.61 31.1-2.22 46.5-3.57 15.4-1.36 33.4-3.33 40-4.39 6.6-1.06 22.35-3.55 35-5.53 12.65-1.98 25.92-4.24 29.5-5.02 3.58-0.79 11.45-2.16 17.5-3.05 6.05-0.88 15.95-2.67 22-3.97 6.05-1.3 20.45-4.66 32-7.47 11.55-2.81 26.17-6.7 32.5-8.64 6.33-1.94 19.83-6.24 30-9.54 10.17-3.31 24.12-8.21 31-10.88 6.87-2.68 21.5-8.1 32.5-12.03 11-3.94 22.03-8.19 24.5-9.44 2.47-1.26 11.03-5.08 19-8.49 7.97-3.41 23.95-10.79 35.5-16.4 11.55-5.61 30-15.52 41-22.04 11-6.51 23.6-14.09 28-16.85 4.4-2.76 11.6-7.13 16-9.72 4.4-2.59 11.16-6.68 15.01-9.1 3.86-2.41 10.84-7.2 15.5-10.62 4.67-3.43 13.19-9.73 18.93-14 5.74-4.28 13.39-9.97 17-12.67 3.61-2.69 15.3-11.91 25.99-20.5 10.69-8.58 23.74-19.41 29-24.07 5.26-4.65 17.22-15.52 26.57-24.16 9.35-8.63 20.44-19.22 24.65-23.53 4.21-4.31 11.41-12.05 16-17.2 4.59-5.14 13.41-15.04 19.59-22 6.18-6.95 17.32-19.84 24.75-28.64 7.42-8.8 17.31-21.17 21.97-27.5 4.66-6.33 12.18-16.67 16.71-23 4.54-6.33 10.82-14.88 13.97-19 3.14-4.13 9.43-13.58 13.96-21 4.53-7.42 9.63-15.88 11.32-18.79 1.69-2.91 8.14-13.82 14.33-24.25 6.19-10.43 16.77-29.87 23.51-43.21 6.74-13.34 16.36-33.03 21.38-43.75 5.01-10.72 12.35-28.28 16.29-39 3.95-10.72 8.02-21.53 9.05-24 1.03-2.47 4.63-12.15 8.01-21.5 3.38-9.35 8.36-24.2 11.08-33 2.72-8.8 8.05-28.38 11.85-43.5 3.8-15.13 8.3-34.25 9.99-42.5 1.7-8.25 3.53-16.8 4.06-19 0.54-2.2 3.22-18.17 5.96-35.5 2.74-17.33 5.67-38.47 6.51-47 0.85-8.53 1.99-21.58 2.54-29 0.55-7.42 1.69-27 2.53-43.5 1.2-23.48 1.31-34.13 0.5-49-0.56-10.45-1.93-32.05-3.03-48-1.11-15.95-2.92-36.42-4.03-45.5-1.11-9.08-3.56-26.63-5.44-39-1.88-12.38-5.95-34.42-9.03-49-3.09-14.58-7.86-35.5-10.59-46.5-2.73-11-7-26.75-9.48-35-2.48-8.25-7.24-23.1-10.58-33-3.34-9.9-7.86-22.5-10.04-28-2.18-5.5-6.68-17.42-9.99-26.5-3.32-9.08-9.08-23.02-12.81-31-3.73-7.98-9.47-20.35-12.76-27.5-3.3-7.15-10.44-21.77-15.88-32.5-5.44-10.73-12.72-24-16.19-29.5-3.46-5.5-9.55-15.63-13.54-22.5-3.98-6.88-10.96-18.57-15.51-26-4.54-7.43-10.63-16.65-13.52-20.5-2.89-3.85-8.14-11.05-11.66-16-3.52-4.95-11.99-16.43-18.83-25.5-6.83-9.07-16.24-21.23-20.92-27-4.68-5.77-11.28-13.43-14.67-17-3.39-3.57-9.27-10.1-13.08-14.5-3.81-4.41-10.3-11.6-14.43-15.98-4.13-4.39-16.05-16.55-26.5-27.02-10.45-10.47-24.63-23.94-31.5-29.94-6.88-5.99-14.75-13.03-17.5-15.65-2.75-2.61-9.28-8.24-14.5-12.5-5.22-4.26-21.2-16.43-35.5-27.04-14.3-10.61-29.6-21.96-34-25.23-4.4-3.27-18.35-12.22-31-19.89-12.65-7.68-29.97-18.02-38.5-22.99-8.53-4.97-23.83-13.44-34-18.83-10.17-5.38-24.13-12.43-31-15.66-6.88-3.24-17.22-8.28-23-11.2-5.78-2.93-13.88-6.71-18-8.41-4.13-1.69-12.9-5.1-19.5-7.56-6.6-2.46-16.72-6.31-22.5-8.56-5.78-2.24-19.05-6.96-29.5-10.48-10.45-3.52-22.04-7.56-25.75-8.98-3.71-1.42-19.69-5.98-35.5-10.14-15.81-4.16-34.38-9.16-41.25-11.12-6.88-1.95-17.9-4.41-24.5-5.46-6.6-1.05-24.15-3.46-39-5.36-14.85-1.89-34.2-4.14-43-4.98-8.8-0.85-29.95-2.45-47-3.55-17.05-1.11-41.58-2.29-54.5-2.62-12.92-0.33-23.73-0.38-24-0.1z"/>
		<path id="Path 2" class="s0" d="m949 85.56c-12.92 0.7-28.9 1.78-35.5 2.4-6.6 0.62-22.35 2.47-35 4.11-12.65 1.64-30.42 4.1-39.5 5.46-9.08 1.36-20.1 3.37-24.5 4.46-4.4 1.09-25.33 6.23-46.5 11.42-21.17 5.18-46.6 12.12-56.5 15.4-9.9 3.29-23.63 7.99-30.5 10.46-6.88 2.47-19.7 7.51-28.5 11.2-8.8 3.69-19.6 8.31-24 10.25-4.4 1.95-20.6 9.78-36 17.4-15.4 7.62-32.5 16.41-38 19.54-5.5 3.13-14.5 8.38-20 11.66-5.5 3.28-16.08 9.54-23.5 13.92-7.43 4.38-18.68 11.35-25 15.49-6.32 4.15-21.4 15-33.5 24.12-12.1 9.12-26.95 20.6-33 25.52-6.05 4.91-15.49 13.03-20.97 18.03-5.49 5.01-20.03 19-32.33 31.1-12.29 12.1-29.18 29.4-37.53 38.45-8.34 9.05-18.77 20.33-23.17 25.07-4.4 4.74-12.34 13.99-17.64 20.55-5.3 6.56-16.35 21.16-24.56 32.43-8.22 11.27-18.56 25.9-22.98 32.5-4.42 6.6-13.12 20.32-19.33 30.5-6.21 10.17-16 26.6-21.77 36.5-5.77 9.9-16.55 30.37-23.97 45.5-7.42 15.12-14.39 29.52-15.5 32-1.1 2.48-4.92 11.92-8.47 21-3.55 9.08-11.38 30.45-17.4 47.5-6.01 17.05-11.81 33.92-12.88 37.5-1.07 3.58-6.47 25.17-12 48-5.53 22.83-10.71 46-11.53 51.5-0.81 5.5-3.03 21.48-4.93 35.5-1.91 14.02-3.92 30-4.48 35.5-0.55 5.5-1.55 20.12-2.22 32.5-0.66 12.37-1.19 38.48-1.18 58 0.01 20.27 0.74 48.16 1.69 65 1.38 24.47 2.58 35.81 7.04 66.5 3.7 25.44 7.02 44.03 10.62 59.5 2.87 12.37 7.9 33.3 11.18 46.5 3.43 13.84 10.18 36.7 15.95 54 5.5 16.5 11.29 33.15 12.87 37 1.57 3.85 5.4 13.53 8.51 21.5 3.11 7.97 11.29 26.2 18.17 40.5 6.88 14.3 15.79 32.53 19.8 40.5 4 7.97 10.37 19.77 14.15 26.21 3.77 6.44 11.32 19.04 16.77 28 5.45 8.96 14.03 22.37 19.08 29.79 5.05 7.42 14.99 21.15 22.09 30.51 7.11 9.36 17.65 22.85 23.42 29.99 5.77 7.14 13.65 16.39 17.5 20.55 3.85 4.17 13.75 14.93 22 23.91 8.25 8.99 21.3 22.52 29 30.06 7.7 7.55 17.01 16.37 20.7 19.6 3.68 3.23 13.35 11.97 21.5 19.41 8.14 7.45 22 19.17 30.8 26.06 8.8 6.89 23.2 17.9 32 24.46 8.8 6.57 23.65 16.85 33 22.85 9.35 6 24.42 15.4 33.5 20.9 9.08 5.49 25.5 14.93 36.5 20.97 11 6.04 33.5 17.63 50 25.75 16.5 8.12 33.6 16.13 38 17.81 4.4 1.68 14.3 5.51 22 8.51 7.7 3 23 8.39 34 11.97 11 3.58 26.3 8.33 34 10.56 7.7 2.23 23.9 6.54 36 9.56 12.1 3.03 31.45 7.33 43 9.56 11.55 2.22 22.8 4.49 25 5.02 2.2 0.54 15.25 2.82 29 5.07 13.75 2.25 29.73 4.49 35.5 4.97 5.77 0.49 36.38 1.18 68 1.55 37.59 0.43 67.54 0.25 86.5-0.5 20.88-0.83 33.48-1.84 45-3.61 8.8-1.35 22.3-3.55 30-4.9 7.7-1.34 24.58-4.5 37.5-7.02 12.92-2.52 34.97-7.5 49-11.08 14.03-3.57 31.12-8.1 38-10.05 6.87-1.96 19.25-5.81 27.5-8.56 8.25-2.76 20.85-7.29 28-10.08 7.15-2.8 19.3-7.55 27-10.57 7.7-3.02 25.92-11.33 40.5-18.47 14.58-7.13 33.92-17.03 43-21.99 9.08-4.96 18.75-10.26 21.5-11.78 2.75-1.52 13.1-7.69 23-13.71 9.9-6.02 24.97-15.45 33.5-20.95 8.53-5.51 20.45-13.69 26.5-18.19 6.05-4.49 15.9-11.87 21.89-16.4 5.98-4.53 15.66-12.03 21.5-16.67 5.83-4.63 15.13-12.51 20.66-17.5 5.52-4.99 17.22-15.63 26-23.66 8.77-8.02 24.76-23.77 35.54-35 10.77-11.22 23.37-24.58 28-29.68 4.62-5.11 11.48-12.76 15.24-17 3.76-4.25 10.06-11.78 14-16.74 3.94-4.95 9.68-12.37 12.74-16.5 3.07-4.12 8.27-11.09 11.57-15.49 3.31-4.4 10.67-14.97 16.37-23.5 5.7-8.53 15.07-23.15 20.82-32.5 5.75-9.35 12.48-20.38 14.95-24.5 2.48-4.13 7.86-13.8 11.96-21.5 4.09-7.7 11.96-23.45 17.47-35 5.52-11.55 12.72-27.08 16.01-34.5 3.3-7.42 8.01-18.9 10.47-25.5 2.47-6.6 5.07-13.13 5.78-14.5 0.7-1.38 6.05-16.67 11.87-34 5.82-17.33 12.37-38.7 14.56-47.5 2.18-8.8 6.45-26.8 9.48-40 3.04-13.2 6.45-28.28 7.59-33.5 1.15-5.22 4.3-25.03 7.02-44 2.71-18.97 5.39-41.47 5.95-50 0.55-8.53 1.52-27.88 2.14-43 0.64-15.59 0.84-37.67 0.47-51-0.37-12.92-1.31-35.65-2.09-50.5-0.78-14.85-2.32-33.08-3.42-40.5-1.11-7.42-3.35-23.63-4.99-36-1.64-12.38-4.37-28.58-6.07-36-1.69-7.42-6.64-28.13-10.99-46-5.87-24.16-10.38-39.82-17.56-61-5.31-15.67-12.47-35.7-15.91-44.5-3.43-8.8-7.49-19.38-9.02-23.5-1.52-4.13-8.81-19.88-16.2-35-7.39-15.13-17.77-35.6-23.07-45.5-5.29-9.9-12.37-22.27-15.74-27.5-3.36-5.23-9.64-15.35-13.95-22.5-4.31-7.15-10.74-17.5-14.29-23-3.55-5.5-8.54-13-11.1-16.66-2.56-3.66-8.89-12.44-14.07-19.5-5.18-7.06-14.61-19.36-20.97-27.34-6.35-7.98-16.51-20.11-22.58-26.96-6.07-6.86-14.83-16.53-19.48-21.5-4.65-4.97-14.62-15.34-22.16-23.04-7.54-7.7-20.16-20.07-28.04-27.5-7.89-7.43-18.17-17.19-22.85-21.69-4.67-4.51-13-11.83-18.5-16.28-5.5-4.45-20.46-15.95-33.25-25.56-12.79-9.61-28.99-21.22-36-25.8-7.01-4.58-22.2-13.98-33.75-20.89-11.55-6.9-27.08-16.04-34.5-20.31-7.42-4.27-23.85-12.93-36.5-19.24-12.65-6.32-25.47-12.59-28.5-13.94-3.03-1.36-13.6-5.86-23.5-10.01-9.9-4.15-22.05-9.12-27-11.04-4.95-1.92-18-6.53-29-10.26-11-3.72-24.95-8.21-31-9.97-6.05-1.77-23.83-6.32-39.5-10.13-15.67-3.81-33.67-8.23-40-9.81-6.33-1.59-19.6-4.05-29.5-5.46-9.9-1.41-27.9-3.91-40-5.56-12.1-1.64-26.72-3.45-32.5-4.01-5.78-0.56-24.67-1.7-42-2.53-17.33-0.82-40.5-1.44-51.5-1.36-11 0.07-30.58 0.71-43.5 1.41z"/>
		<path id="Path 3" class="s1" d="m581 680.12c-2 0.49-6.94 3.77-11.5 7.61-4.4 3.71-13.32 12.15-19.83 18.76-6.5 6.61-12.69 13.7-13.75 15.76-1.05 2.06-1.92 5.55-1.92 7.75 0 2.2 0.52 5.01 1.16 6.25 0.65 1.24 4.36 5.84 8.25 10.24 3.9 4.39 11.58 12.72 17.07 18.5 5.49 5.78 13.85 14.34 18.58 19.01 4.73 4.67 13.88 14.12 20.34 21 6.86 7.3 12.76 14.58 14.18 17.5 1.56 3.18 2.44 6.73 2.43 9.75 0 2.61-0.7 6.44-1.54 8.5-1.06 2.58-11.58 13.71-33.81 35.75-17.75 17.6-42.06 42.12-54.02 54.5-17.84 18.46-21.93 23.22-22.77 26.5-0.57 2.22-0.69 5.78-0.27 8 0.42 2.2 2.32 6.02 4.24 8.5 1.92 2.48 9.38 10.73 16.57 18.35 7.26 7.68 15.76 15.6 19.09 17.79 4.18 2.74 7.06 3.92 9.5 3.89 1.92-0.02 5.08-0.99 7-2.16 1.92-1.17 6.2-4.41 9.5-7.2 3.3-2.79 25.58-24.5 49.5-48.25 23.92-23.75 45.86-45.26 48.75-47.8 2.89-2.54 6.6-5.29 8.25-6.12 1.65-0.83 5.36-1.51 8.25-1.53 4.43-0.02 6.19 0.59 11.25 3.87 3.75 2.42 17.91 15.93 37.75 36.02 17.46 17.68 34.11 33.97 37 36.21 2.89 2.23 6.83 4.48 8.75 5 2.64 0.7 4.73 0.5 8.5-0.8 3.3-1.14 7.38-3.9 12-8.12 3.85-3.51 12.12-11.4 18.37-17.52 6.5-6.36 12.17-12.84 13.23-15.13 1.02-2.2 1.87-5.69 1.88-7.75 0.01-2.06-0.38-4.76-0.86-6-0.49-1.24-2.63-4.57-4.75-7.41-2.13-2.84-18.16-19.83-35.62-37.75-17.46-17.93-32.89-34.28-34.29-36.34-1.79-2.64-2.73-5.67-3.16-10.25-0.53-5.55-0.27-7.23 1.74-11.5 1.83-3.9 10.21-12.84 37.96-40.5 19.58-19.52 36.96-37.08 38.62-39 1.67-1.92 3.78-4.96 4.71-6.75 0.92-1.79 1.68-4.49 1.7-6 0.02-1.51-1.22-5.12-2.75-8.02-1.53-2.89-7.51-10.29-13.28-16.43-5.77-6.15-14.12-14.35-18.54-18.24-5.86-5.14-9.32-7.4-12.75-8.31-3.61-0.96-5.47-0.98-7.96-0.1-1.79 0.63-4.88 2.32-6.88 3.75-1.99 1.43-19.77 18.58-39.5 38.11-28.15 27.88-37.05 36.11-41.37 38.27-3.85 1.92-7 2.73-10.5 2.71-2.81-0.02-6.86-0.9-9.25-2.01-2.97-1.39-15.29-13.05-41-38.85-22.15-22.22-38.54-37.87-41.25-39.38-2.48-1.38-5.63-2.73-7-3-1.38-0.27-4.08-0.1-6 0.37zm604.47 22.8c-4.53 2.21-8.72 5.77-17.4 14.75-6.29 6.51-13.84 14.75-16.78 18.33-2.94 3.58-6.06 8.3-6.94 10.5-1.36 3.41-1.41 4.74-0.35 9 1.18 4.77 3.11 6.85 41.59 45 34.13 33.85 40.73 40.85 42.87 45.5 1.38 3.02 2.53 6.85 2.54 8.5 0.01 1.65-1.08 5.25-2.43 8-1.74 3.57-7.82 10.34-21.26 23.66-10.34 10.26-21.34 20.84-24.44 23.5-3.09 2.66-15.69 14.36-28 26-12.3 11.63-23.78 23.11-25.5 25.5-1.73 2.39-3.62 6.14-4.2 8.34-0.83 3.11-0.75 4.89 0.38 8 0.8 2.2 2.69 5.75 4.2 7.89 1.51 2.15 8.83 10.45 16.25 18.45 7.42 8.01 15.45 15.93 17.84 17.61 3.62 2.54 5.3 3.05 10.07 3.05 4.56 0 6.54-0.55 9.66-2.66 2.16-1.47 7.53-5.93 11.93-9.9 4.4-3.98 13.4-12.23 20-18.33 6.6-6.1 16.28-15.16 21.5-20.14 5.22-4.98 15.35-14.46 22.5-21.07 7.15-6.6 16.83-15.29 21.5-19.3 4.67-4.01 10.3-8.2 12.5-9.31 2.2-1.1 6.03-2.24 8.5-2.53 3.32-0.39 5.81 0.05 9.5 1.68 2.75 1.2 7.03 3.84 9.5 5.85 2.47 2.01 13.04 11.77 23.47 21.69 10.43 9.91 27.12 25.89 37.07 35.52 9.96 9.62 24.15 23.32 31.53 30.44 7.39 7.11 16.47 14.88 20.18 17.25 4.11 2.62 7.92 4.31 9.75 4.31 1.65 0 4.69-0.87 6.75-1.92 2.06-1.06 6.3-4.1 9.42-6.75 3.12-2.66 11.1-10.68 17.74-17.83 6.64-7.15 13.23-15.25 14.65-18 2.01-3.9 2.43-5.77 1.88-8.5-0.38-1.92-1.75-5.52-3.05-8-1.34-2.56-8.06-10.13-15.62-17.58-7.3-7.2-14.85-14.34-16.77-15.87-1.92-1.54-11.76-10.73-21.85-20.42-10.09-9.7-26.88-25.96-37.31-36.13-10.42-10.17-19.82-19.85-20.88-21.5-1.05-1.65-2.23-5.25-2.61-8-0.51-3.7-0.21-6.3 1.13-10 1.51-4.14 4.51-7.66 17.49-20.5 8.61-8.52 24.52-23.83 35.35-34 12.46-11.71 20.59-20.15 22.15-23 1.36-2.48 2.47-6.08 2.48-8 0-1.92-0.82-5.3-1.82-7.5-1.01-2.2-4.49-7.15-7.73-11-3.25-3.85-7.03-8.15-8.4-9.56-1.38-1.4-6.66-7.14-11.75-12.75-5.09-5.6-9.59-10.1-10-9.98-0.41 0.11-2.21-0.57-4-1.5-1.79-0.94-4.6-1.71-6.25-1.71-1.65 0-4.46 0.67-6.25 1.49-1.79 0.82-6.85 4.47-11.25 8.11-4.4 3.64-14.15 12.53-21.68 19.76-7.52 7.23-19.22 18.38-26 24.79-6.77 6.41-14.57 13.44-17.32 15.62-2.75 2.17-6.46 4.69-8.25 5.59-1.79 0.9-5.61 1.93-8.5 2.28-4.43 0.55-6.18 0.23-11.25-2.08-3.3-1.5-8.92-5.34-12.5-8.53-3.58-3.19-11-10.36-16.5-15.93-5.5-5.58-10.45-10.13-11-10.11-0.55 0.02-8.48-7.28-17.61-16.23-9.14-8.94-19.59-18.74-23.22-21.76-3.64-3.02-8.99-6.75-11.89-8.28-2.9-1.53-6.19-2.77-7.31-2.75-1.11 0.02-4.71 1.34-8 2.95zm-614.97 573.98c-2.2 0.36-5.75 1.54-7.88 2.63-2.45 1.24-4.67 3.45-6 5.97-1.99 3.75-2.14 5.78-2.48 32.5-0.33 26.16-0.21 28.82 1.5 32.43 1.02 2.16 3.44 4.99 5.36 6.3 3.39 2.29 4.43 2.39 32 3.27 15.67 0.5 64.27 1.39 108 1.98 43.73 0.59 102.67 1.51 131 2.05 28.33 0.54 99.42 1.87 158 2.97 58.58 1.1 128.55 2.46 155.5 3.01 26.95 0.55 78.47 1.49 114.5 2.07 36.03 0.58 86.91 1.14 113.07 1.24l47.57 0.18c5.99-4.65 8.38-7.58 9.18-9.5 0.79-1.92 1.79-6.88 2.22-11 0.43-4.13 1.04-14.36 1.37-22.75 0.39-10.03 0.25-15.08-0.41-14.75-0.61 0.3-1-1.75-1-5.25 0.01-3.68-0.66-7.01-1.85-9.25-1.02-1.92-3.16-4.42-4.75-5.55-1.6-1.13-5.82-2.56-9.4-3.17-3.58-0.61-12.58-1.15-20-1.2-7.42-0.04-48.15-0.74-90.5-1.55-42.35-0.8-82.85-1.71-90-2.01-7.15-0.3-32.35-0.77-56-1.04-23.65-0.27-72.25-0.92-108-1.45-35.75-0.53-78.5-1.22-95-1.53-16.5-0.3-45.52-0.78-64.5-1.06-18.98-0.27-45.52-0.7-59-0.94-13.48-0.25-36.2-0.69-50.5-0.99-14.3-0.31-36.58-0.76-49.5-1.01-12.92-0.26-33.85-0.7-46.5-0.98-12.65-0.29-41.04-0.97-63.1-1.52-22.05-0.55-42.08-0.94-44.5-0.87-2.42 0.06-6.2 0.41-8.4 0.77z"/>
		<path id="Path 4" class="s0" d="m589 736.2c-0.77 0.66-1.31 2.01-1.2 3 0.11 0.99 0.54 1.79 0.95 1.77 0.41-0.01 1.25 1 1.86 2.25 0.62 1.25 5.79 7.45 11.5 13.77 5.72 6.32 19.84 21.1 31.39 32.84 11.55 11.74 22.75 23.67 24.89 26.51 2.13 2.84 4.5 6.62 5.25 8.41 0.75 1.79 1.36 6.17 1.36 9.75 0 4.38-0.65 7.88-1.98 10.75-1.3 2.79-8.25 10.43-20.25 22.27-10.05 9.92-24.01 23.3-31.02 29.75-7.01 6.45-12.74 12.07-12.74 12.48 0.01 0.41-8.36 9.07-18.59 19.25-11.07 11-19.2 19.92-20.07 22-1.21 2.89-1.24 3.73-0.16 4.79q1.31 1.29 4.31 0.54c1.94-0.49 8.07-5.7 17.38-14.79 7.92-7.72 20.97-21.02 29-29.54 8.04-8.53 15.07-15.62 15.62-15.76 0.55-0.14 9.13-8.69 19.07-19 12.8-13.27 19.51-19.47 23-21.24 2.71-1.38 5.16-2.86 5.43-3.3 0.27-0.44 4.33-0.88 9-0.97 7.71-0.16 9.15 0.13 15.5 3.1 6.48 3.03 9.34 5.65 38.5 35.24 17.7 17.95 32.27 31.95 33.25 31.94 1.01 0 1.74-0.75 1.72-1.76-0.01-0.96-1.88-4.23-4.14-7.25-2.27-3.03-15.2-16.53-28.73-30-13.54-13.48-25.85-26.3-27.36-28.5-1.51-2.2-3.4-5.8-4.2-8-0.84-2.31-1.47-7.71-1.5-12.75-0.03-6.18 0.44-9.7 1.6-12 0.9-1.79 3.23-5.05 5.18-7.25 1.95-2.2 18.77-19.53 37.39-38.5 18.86-19.22 33.83-35.27 33.82-36.25-0.02-0.96-1.04-2.39-2.28-3.17-1.24-0.77-3.15-1.16-4.25-0.85-1.1 0.31-4.92 3.3-8.5 6.64-3.58 3.35-19.14 18.47-34.59 33.61-15.45 15.14-30.53 29.24-33.5 31.35-4.91 3.47-6.15 3.87-13.41 4.34-6.25 0.41-8.98 0.13-12.5-1.26-3.17-1.26-8.46-5.64-17.93-14.85-7.39-7.18-14.81-14.64-16.49-16.56-1.67-1.93-5.08-5.53-7.56-8.01-2.49-2.48-10.82-10.62-18.52-18.08-7.7-7.47-15.91-14.55-18.25-15.74-2.34-1.19-4.61-2.17-5.05-2.17-0.44 0-1.43 0.54-2.2 1.2zm608.58 17.88c-1.06 0.56-1.84 1.9-1.75 2.97 0.09 1.07 1.04 3.64 2.1 5.7 1.06 2.06 3.99 6.11 6.5 9 2.51 2.89 4.91 5.02 5.32 4.75 0.41-0.28-0.38-1.74-1.75-3.24-1.38-1.51 0.2-0.32 3.5 2.63 3.3 2.95 14.53 13.53 24.95 23.49 10.42 9.97 23.59 22.84 29.26 28.62 6.06 6.17 11.35 12.56 12.81 15.5 1.86 3.71 2.5 6.55 2.47 11-0.02 3.89-0.76 7.58-2.1 10.5-1.14 2.47-3.94 6.55-6.23 9.06-2.29 2.5-12.55 12.4-22.81 22-10.25 9.59-25.71 23.96-34.34 31.94-8.63 7.97-19.53 18.55-24.23 23.5-4.7 4.95-9.16 10.01-9.91 11.25-0.75 1.24-1.15 3.15-0.87 4.25 0.35 1.39 1.34 2 3.25 2.01 1.51 0.01 4.07-1.01 5.68-2.25 1.61-1.24 8.81-7.41 16-13.71 7.19-6.29 22.89-20.69 34.89-32 12-11.3 25.5-23.88 30-27.94 4.5-4.07 10.88-9.39 14.18-11.81 3.3-2.43 7.8-4.89 10-5.47 2.2-0.58 6.92-0.86 10.5-0.63 4.64 0.3 7.79 1.17 11 3.04 2.47 1.43 8.33 5.84 13 9.78 4.67 3.94 13.69 12.42 20.04 18.83 6.35 6.41 19.17 18.62 28.48 27.15 9.31 8.52 19.86 18.53 23.45 22.23 3.59 3.7 7.97 7.75 9.73 9 1.76 1.25 6.93 5.24 11.5 8.88 4.56 3.63 8.97 6.83 9.8 7.11 0.83 0.28 2.29 0.12 3.25-0.36 1.09-0.53 1.75-2 1.75-3.86 0-2.62-3.49-6.37-27.25-29.32-14.99-14.48-34.45-33.21-43.25-41.63-8.8-8.42-17.71-16.94-19.8-18.93-2.09-1.99-6.77-6.55-10.39-10.12-3.62-3.58-7.75-8.53-9.17-11-2.03-3.56-2.57-5.86-2.58-11-0.01-4.47 0.61-7.75 1.97-10.49 1.08-2.2 6.73-8.95 12.54-15 5.81-6.06 19.54-19.74 30.5-30.41 10.96-10.67 22.07-21.92 24.69-25 2.62-3.08 4.78-6.5 4.8-7.6 0.02-1.1-0.67-2.56-1.52-3.25-0.84-0.69-2.67-1.03-4.04-0.75-1.38 0.27-3.54 1.51-4.81 2.75-1.27 1.24-5.21 4.72-8.75 7.75-3.54 3.02-14.32 12.94-23.94 22.03-9.63 9.1-21.89 20.46-27.25 25.26-5.36 4.79-11.66 9.66-14 10.82-2.34 1.16-6.28 2.35-8.75 2.64-2.47 0.3-6.75-0.01-9.5-0.68-2.86-0.69-7.36-2.98-10.5-5.33-3.03-2.26-5.72-4.37-6-4.7-0.28-0.32-5.4-4.85-11.38-10.06-5.99-5.22-15.27-14.43-20.63-20.48-5.36-6.05-13.29-14.38-17.62-18.51-4.33-4.14-10.79-9.93-14.37-12.88-3.58-2.95-7.74-5.99-9.25-6.74-1.51-0.75-3.76-1.36-5-1.34-1.24 0.02-3.11 0.49-4.17 1.05zm-593.5 562.84c-1.48 1.48-1.86 2.68-1.33 4.15 0.41 1.14 1.65 2.23 2.75 2.42 1.1 0.18 2.9 0.37 4 0.42 1.1 0.05 8.08 0.61 15.5 1.24 8.7 0.74 45.3 1.18 103 1.25 49.22 0.05 100.75 0.43 114.5 0.83 13.75 0.39 41.2 0.99 61 1.31 19.8 0.32 37.35 0.97 39 1.44 1.65 0.47 21 1.15 43 1.53 22 0.37 40.9 0.88 42 1.13 1.1 0.25 65 0.67 142 0.94 77 0.26 140.56 0.69 141.25 0.95 0.69 0.26 16.21 0.15 34.5-0.24 27.67-0.6 33.57-0.98 35.14-2.25 1.38-1.13 1.71-2.27 1.25-4.29-0.35-1.51-1.43-3.03-2.39-3.36-0.96-0.34-13-0.86-26.75-1.15-13.75-0.3-69.55-0.68-124-0.86-54.45-0.17-108.67-0.81-120.5-1.42-11.83-0.61-23.3-1.26-25.5-1.45-2.2-0.19-24.25-0.46-49-0.61-24.75-0.16-56.25-0.65-70-1.11-13.75-0.45-50.42-1.04-81.5-1.31-31.08-0.26-60.1-0.5-64.5-0.53-4.4-0.03-20.6-0.02-36 0.01-15.4 0.04-61.15-0.2-101.67-0.52-73.62-0.59-73.68-0.59-75.75 1.48z"/>
	</g>
</svg>